<svg id="nr7.co_eminds_index-3" xmlns="http://www.w3.org/2000/svg" width="81.092" height="64.445" viewBox="0 0 81.092 64.445">
  <path id="Path_40850" data-name="Path 40850" d="M224.014,91.1v26.639l-6.314,6.314V97.466Z" transform="translate(-209.847 -67.331)" fill="#ea8a23"/>
  <path id="Path_40851" data-name="Path 40851" d="M254.214,60.9V87.565L247.9,93.853V67.400Z" transform="translate(-232.167 -45.01)" fill="#ea8a23"/>
  <path id="Path_40852" data-name="Path 40852" d="M284.688,30.4V57.065L278.4,63.379V36.792Z" transform="translate(-254.709 -22.468)" fill="#ea8a23"/>
  <path id="Path_40853" data-name="Path 40853" d="M314.814,60.3V86.887L308.5,93.279V66.692Z" transform="translate(-276.956 -44.567)" fill="#c0c5c7"/>
  <path id="Path_40854" data-name="Path 40854" d="M284.688,90.2v26.665l-6.288,6.314V96.671Z" transform="translate(-254.709 -66.666)" fill="#c0c5c7"/>
  <path id="Path_40855" data-name="Path 40855" d="M254.214,120.7v26.639l-6.314,6.314V127.145Z" transform="translate(-232.167 -89.208)" fill="#c0c5c7"/>
  <path id="Path_40856" data-name="Path 40856" d="M193.914,60.3V86.965L187.6,93.279V66.771Z" transform="translate(-187.6 -44.567)" fill="#96a2ad"/>
  <path id="Path_40857" data-name="Path 40857" d="M224.014,30.2V56.839L217.7,63.153V36.645Z" transform="translate(-209.847 -22.32)" fill="#96a2ad"/>
  <path id="Path_40858" data-name="Path 40858" d="M254.214,0V26.665L247.9,32.953V6.471Z" transform="translate(-232.167 0)" fill="#96a2ad"/>
  <path id="Path_40859" data-name="Path 40859" d="M217.7,108.164l6.314-6.314V91.1L217.7,97.466Z" transform="translate(-209.847 -67.331)" fill="#8b5b24"/>
  <path id="Path_40860" data-name="Path 40860" d="M247.9,77.964l6.314-6.288V60.9L247.9,67.400Z" transform="translate(-232.167 -45.01)" fill="#8b5b24"/>
  <path id="Path_40861" data-name="Path 40861" d="M254.214,131.763V120.7l-6.314,6.445v10.906Z" transform="translate(-232.167 -89.208)" fill="#b16c28"/>
  <path id="Path_40862" data-name="Path 40862" d="M278.4,107.577l6.288-6.314V90.2L278.4,96.671Z" transform="translate(-254.709 -66.666)" fill="#b16c28"/>
  <path id="Path_40863" data-name="Path 40863" d="M358.022,60.3h16.02v2.374L360.683,84.356h13.359v2.609H357.5v-2.74l13.359-21.316H358.022Z" transform="translate(-313.171 -44.567)" fill="#86898b"/>
  <g id="Group_38015" data-name="Group 38015" transform="translate(63.036 15.352)">
    <g id="Group_38014" data-name="Group 38014">
      <path id="Path_40864" data-name="Path 40864" d="M438.254,86.253h-.444c-6.079-.157-8.532-3.34-8.61-3.5l1.931-1.931h0c.078.078,2.009,2.818,6.758,2.9a7.088,7.088,0,0,0,5.427-1.7,3.876,3.876,0,0,0,1.122-2.818c0-3.418-2.818-4.227-6.523-5.557-.444-.157-.965-.287-1.331-.444-5.557-1.7-7.436-5.349-6.158-9.419A6.72,6.72,0,0,1,435.54,59.2a12.282,12.282,0,0,1,6.158.078,12.109,12.109,0,0,1,4.3,2.661l-1.852,1.852a7.928,7.928,0,0,0-3.418-2.166c-2.009-.6-6.523-.6-7.645,2.9-.365,1.044-1.409,4.227,4.305,6.236a12.073,12.073,0,0,0,1.252.365c3.7,1.331,8.688,2.609,8.61,8.245a6.2,6.2,0,0,1-2.009,4.592C444.046,85.078,441.959,86.253,438.254,86.253Z" transform="translate(-429.2 -58.842)" fill="#86898c"/>
    </g>
  </g>
</svg>
