<svg xmlns="http://www.w3.org/2000/svg" width="116.509" height="115.618" viewBox="0 0 116.509 115.618">
  <g id="Group_38255" data-name="Group 38255" transform="translate(-472.129 -5154)" opacity="0.038">
    <path id="Path_40811" data-name="Path 40811" d="M351.53,104.155c-2.96-.3-9.475-.3-9.475-4.441,0-5.624,8.289-13.026,21.613-21.02,4.144-2.665,12.732-6.809,12.732-12.435,0-4.441-3.258-7.7-10.067-6.809-6.513.888-16.581,5.329-29.9,16.579-13.915,11.547-26.941,30.79-26.941,49.738,0,19.244,13.026,38.489,34.048,38.489,16.875,0,31.382-12.731,31.382-30.2,0-13.322-9.18-28.716-23.391-29.9Z" transform="translate(212.237 5105.363)"/>
    <path id="Path_40812" data-name="Path 40812" d="M127.317,56.562a20.864,20.864,0,0,0-7.977-2.342c-2.96-.3-9.475-.3-9.475-4.441,0-5.624,8.289-13.026,21.613-21.02,4.145-2.665,12.731-6.809,12.731-12.435,0-4.441-3.258-7.7-10.067-6.809-6.513.888-16.581,5.329-29.9,16.579C90.328,37.641,77.3,56.884,77.3,75.833c0,19.244,13.026,38.489,34.048,38.489a32.74,32.74,0,0,0,13.908-3.082A51.589,51.589,0,0,1,118.9,86.5c0-10.575,3.407-20.831,8.422-29.938Z" transform="translate(394.829 5144.632)"/>
  </g>
</svg>
