<svg id="EM-1" xmlns="http://www.w3.org/2000/svg" width="85.188" height="8.565" viewBox="0 0 85.188 8.565">
  <path id="Path_8" data-name="Path 8" d="M0,120.75H3.366v.674H.87v1.97H3.233v.7H.87v2.16H3.45v.716H0Z" transform="translate(0 -120.274)" fill="#fff"/>
  <path id="Path_9" data-name="Path 9" d="M33.25,130.54v2.717h-.833V130.73a1.742,1.742,0,0,0-.245-1.027.876.876,0,0,0-.757-.335,1.05,1.05,0,0,0-.882.423,1.892,1.892,0,0,0-.32,1.174v2.292H29.38v-4.5h.763v.831a1.782,1.782,0,0,1,.641-.7,1.763,1.763,0,0,1,.923-.237,1.393,1.393,0,0,1,1.151.482,2.185,2.185,0,0,1,.392,1.408" transform="translate(-23.383 -126.562)" fill="#fff"/>
  <path id="Path_10" data-name="Path 10" d="M60.209,122.372v1.388h1.076v.637H60.209v2.331a1.357,1.357,0,0,0,.153.745.568.568,0,0,0,.5.22.984.984,0,0,0,.2-.024,2.113,2.113,0,0,0,.253-.076l.008.657a2.37,2.37,0,0,1-.335.065,2.747,2.747,0,0,1-.345.022,1.21,1.21,0,0,1-.978-.353,1.843,1.843,0,0,1-.3-1.18v-2.411h-.9v-.637H59.4V122.65l.806-.28Z" transform="translate(-46.535 -121.564)" fill="#fff"/>
  <path id="Path_11" data-name="Path 11" d="M84.787,130.64a1.77,1.77,0,0,0-.347-1.037,1,1,0,0,0-.81-.361,1.048,1.048,0,0,0-.831.376,1.762,1.762,0,0,0-.394,1.023Zm.78.214v.341H82.382a1.655,1.655,0,0,0,.461,1.123,1.539,1.539,0,0,0,1.119.4,2.346,2.346,0,0,0,.616-.082,2.939,2.939,0,0,0,.631-.251v.714a3.089,3.089,0,0,1-.649.19,4.518,4.518,0,0,1-.776.063,2.08,2.08,0,0,1-1.615-.645,2.508,2.508,0,0,1-.59-1.755,2.381,2.381,0,0,1,.58-1.676,1.952,1.952,0,0,1,1.515-.637,1.733,1.733,0,0,1,1.388.59,2.417,2.417,0,0,1,.5,1.623Z" transform="translate(-64.928 -126.554)" fill="#fff"/>
  <path id="Path_12" data-name="Path 12" d="M114.241,128.811l-.027.792a.987.987,0,0,0-.182-.041,1.132,1.132,0,0,0-.167-.01,1.048,1.048,0,0,0-.882.4,1.832,1.832,0,0,0-.31,1.147v2.258h-.833v-4.5h.753v.921a1.673,1.673,0,0,1,.523-.745,1.232,1.232,0,0,1,.776-.257,1.537,1.537,0,0,1,.159.008c.059,0,.122.012.19.02" transform="translate(-89.011 -126.665)" fill="#fff"/>
  <path id="Path_13" data-name="Path 13" d="M137,130.971a2.027,2.027,0,0,0-.32-1.208,1.036,1.036,0,0,0-.882-.439,1.13,1.13,0,0,0-.927.453,1.912,1.912,0,0,0-.353,1.2,2.079,2.079,0,0,0,.339,1.237,1.124,1.124,0,0,0,1.809,0,2.072,2.072,0,0,0,.335-1.245m-2.482,1.557v2.6h-.833v-6.369h.753v.87a1.927,1.927,0,0,1,.669-.727,1.717,1.717,0,0,1,.921-.251,1.641,1.641,0,0,1,1.337.625,2.5,2.5,0,0,1,.512,1.643,2.748,2.748,0,0,1-.516,1.755,1.658,1.658,0,0,1-1.374.653,1.744,1.744,0,0,1-.847-.2,1.67,1.67,0,0,1-.621-.6Z" transform="translate(-106.401 -126.562)" fill="#fff"/>
  <path id="Path_14" data-name="Path 14" d="M168.28,128.811l-.027.792a.988.988,0,0,0-.182-.041,1.132,1.132,0,0,0-.167-.01,1.048,1.048,0,0,0-.882.4,1.832,1.832,0,0,0-.31,1.147v2.258h-.833v-4.5h.753v.921a1.673,1.673,0,0,1,.523-.745,1.232,1.232,0,0,1,.776-.257,1.537,1.537,0,0,1,.159.008c.059,0,.122.012.19.02" transform="translate(-132.02 -126.665)" fill="#fff"/>
  <path id="Path_15" data-name="Path 15" d="M187.52,119.09h.833v.833h-.833Zm0,2.06h.833v4.5h-.833Z" transform="translate(-149.243 -118.953)" fill="#fff"/>
  <path id="Path_16" data-name="Path 16" d="M230.727,130.64a1.77,1.77,0,0,0-.347-1.037,1,1,0,0,0-.81-.361,1.048,1.048,0,0,0-.831.376,1.762,1.762,0,0,0-.394,1.023Zm.78.214v.341h-3.184a1.655,1.655,0,0,0,.461,1.123,1.539,1.539,0,0,0,1.119.4,2.346,2.346,0,0,0,.616-.082,2.939,2.939,0,0,0,.631-.251v.714a3.089,3.089,0,0,1-.649.19,4.518,4.518,0,0,1-.776.063,2.079,2.079,0,0,1-1.615-.645,2.508,2.508,0,0,1-.59-1.755,2.381,2.381,0,0,1,.58-1.676,1.952,1.952,0,0,1,1.515-.637,1.733,1.733,0,0,1,1.388.59,2.417,2.417,0,0,1,.5,1.623Z" transform="translate(-181.078 -126.554)" fill="#fff"/>
  <path id="Path_17" data-name="Path 17" d="M276.862,120.75h1.317l1.837,4.821a2.251,2.251,0,0,1,.1.376,3.316,3.316,0,0,1,.049.418c.02-.19.043-.355.069-.5a1.769,1.769,0,0,1,.076-.31l1.906-4.807h1.3v6.218h-.843v-4.883c0-.153.006-.308.018-.469s.031-.327.057-.5c-.039.163-.08.318-.122.461s-.092.276-.141.4l-1.968,4.993h-.772l-1.964-5.07c-.031-.076-.061-.18-.1-.308s-.071-.282-.108-.453c.018.282.031.5.039.665s.014.261.014.3v4.866h-.77v-6.218Z" transform="translate(-220.347 -120.274)" fill="#fff"/>
  <path id="Path_18" data-name="Path 18" d="M322.69,119.09h.833v.833h-.833Zm0,2.06h.833v4.5h-.833Z" transform="translate(-256.822 -118.953)" fill="#fff"/>
  <path id="Path_19" data-name="Path 19" d="M343.78,130.54v2.717h-.833V130.73a1.742,1.742,0,0,0-.245-1.027.876.876,0,0,0-.757-.335,1.05,1.05,0,0,0-.882.423,1.892,1.892,0,0,0-.32,1.174v2.292h-.833v-4.5h.763v.831a1.782,1.782,0,0,1,.641-.7,1.763,1.763,0,0,1,.923-.237,1.393,1.393,0,0,1,1.151.482,2.185,2.185,0,0,1,.392,1.408" transform="translate(-270.527 -126.562)" fill="#fff"/>
  <path id="Path_20" data-name="Path 20" d="M373.443,118.422h.833v6.691h-.759V124.2a1.9,1.9,0,0,1-.659.739,1.693,1.693,0,0,1-.921.247,1.6,1.6,0,0,1-1.319-.67,2.736,2.736,0,0,1-.518-1.721,2.536,2.536,0,0,1,.508-1.662,1.653,1.653,0,0,1,1.345-.627,1.747,1.747,0,0,1,.861.208,1.677,1.677,0,0,1,.627.616V118.42Zm-1.282,2.733a1,1,0,0,0-.859.457,2.112,2.112,0,0,0-.32,1.237,2.009,2.009,0,0,0,.327,1.219,1.028,1.028,0,0,0,.874.447,1.118,1.118,0,0,0,.917-.455,1.946,1.946,0,0,0,.347-1.21,2.058,2.058,0,0,0-.343-1.243,1.119,1.119,0,0,0-.939-.451Z" transform="translate(-294.554 -118.42)" fill="#fff"/>
  <path id="Path_21" data-name="Path 21" d="M203.879,128.758l.02.68a3.746,3.746,0,0,0-.639-.173,3.369,3.369,0,0,0-.655-.045,1.125,1.125,0,0,0-.6.159.4.4,0,0,0-.2.378.512.512,0,0,0,.22.361,3.743,3.743,0,0,0,.819.386,3.631,3.631,0,0,1,1.149.6,1.108,1.108,0,0,1,.365.735,1.039,1.039,0,0,1-.465.988,2.591,2.591,0,0,1-1.457.408,4.008,4.008,0,0,1-.682-.035,4.272,4.272,0,0,1-.663-.145l-.033-.7a3.95,3.95,0,0,0,.7.206,3.113,3.113,0,0,0,.659.055,1.285,1.285,0,0,0,.714-.2.508.508,0,0,0,.229-.484.547.547,0,0,0-.2-.378,3.014,3.014,0,0,0-.788-.394,3.9,3.9,0,0,1-1.143-.606,1.021,1.021,0,0,1-.355-.688.919.919,0,0,1,.425-.868,2.315,2.315,0,0,1,1.3-.369,4.94,4.94,0,0,1,.623.02,4.527,4.527,0,0,1,.645.108" transform="translate(-159.876 -126.545)" fill="#fff"/>
  <path id="Path_22" data-name="Path 22" d="M403.249,128.758l.02.68a3.748,3.748,0,0,0-.639-.173,3.37,3.37,0,0,0-.655-.045,1.125,1.125,0,0,0-.6.159.4.4,0,0,0-.2.378.512.512,0,0,0,.22.361,3.744,3.744,0,0,0,.818.386,3.63,3.63,0,0,1,1.149.6,1.109,1.109,0,0,1,.365.735,1.039,1.039,0,0,1-.465.988,2.591,2.591,0,0,1-1.457.408,4.009,4.009,0,0,1-.682-.035,4.276,4.276,0,0,1-.663-.145l-.033-.7a3.95,3.95,0,0,0,.7.206,3.114,3.114,0,0,0,.659.055,1.285,1.285,0,0,0,.714-.2.508.508,0,0,0,.229-.484.546.546,0,0,0-.2-.378,3.014,3.014,0,0,0-.788-.394,3.9,3.9,0,0,1-1.143-.606,1.021,1.021,0,0,1-.355-.688.919.919,0,0,1,.425-.868,2.315,2.315,0,0,1,1.3-.369,4.94,4.94,0,0,1,.623.02,4.529,4.529,0,0,1,.645.108" transform="translate(-318.55 -126.545)" fill="#fff"/>
</svg>
