<svg id="Component_5_5" data-name="Component 5 – 5" xmlns="http://www.w3.org/2000/svg" width="73" height="72" viewBox="0 0 73 72">
  <rect id="Rectangle_15764" data-name="Rectangle 15764" width="73" height="72" rx="36" fill="#0751bf"/>
  <path id="noun-menu-3943400" d="M138.033,116.245H115.176a1.429,1.429,0,1,1,0-2.857h22.857a1.429,1.429,0,1,1,0,2.857Zm-8.067-10a1.428,1.428,0,0,0-1.457-1.429H115.176a1.429,1.429,0,1,0,0,2.857h13.333a1.428,1.428,0,0,0,1.457-1.429Zm9.524-8.571a1.428,1.428,0,0,0-1.457-1.429H115.176a1.429,1.429,0,1,0,0,2.857h22.857a1.428,1.428,0,0,0,1.457-1.429Z" transform="translate(-90.747 -70.245)" fill="#fff"/>
</svg>
